PathFileType        4      (X/Y/Z)      C:\Users\pc\Desktop\IMUTRC\Sujet_05\Sujet_05_Tpose.trc         
DataRate	CameraRate	NumFrames	NumMarkers	Units	OrigDataRate	OrigDataStartFrame	OrigNumFrames
60.0	60.0	4	64	mm	60.0	88	116
Frame#	Time	pHipOrigin			pRightASI			pLeftASI			pRightCSI			pLeftCSI			pRightIschialTub			pLeftIschialTub			pSacrum			pL5SpinalProcess			pL3SpinalProcess			pT12SpinalProcess			pIJ			pT4SpinalProcess			pT8SpinalProcess			pPX			pC7SpinalProcess			pTopOfHead			pRightAuricularis			pLeftAuricularis			pBackOfHead			pRightAcromion			pLeftAcromion			pRightArmLatEpicondyle			pRightArmMedEpicondyle			pLeftArmLatEpicondyle			pLeftArmMedEpicondyle			pRightUlnarStyloid			pRightRadialStyloid			pRightOlecranon			pLeftUlnarStyloid			pLeftRadialStyloid			pLeftOlecranon			pRightTopOfHand			pRightPinky			pRightBallHand			pLeftTopOfHand			pLeftPinky			pLeftBallHand			pRightGreaterTrochanter			pRightKneeLatEpicondyle			pRightKneeMedEpicondyle			pRightPatella			pLeftGreaterTrochanter			pLeftKneeLatEpicondyle			pLeftKneeMedEpicondyle			pLeftPatella			pRightTibialTub			pRightLatMalleolus			pRightMedMalleolus			pLeftTibialTub			pLeftLatMalleolus			pLeftMedMalleolus			pRightHeelFoot			pRightFirstMetatarsal			pRightFifthMetatarsal			pRightPivotFoot			pRightHeelCenter			pRightToe			pLeftHeelFoot			pLeftFirstMetatarsal			pLeftFifthMetatarsal			pLeftPivotFoot			pLeftHeelCenter			pLeftToe			
		X1	Y1	Z1	X2	Y2	Z2	X3	Y3	Z3	X4	Y4	Z4	X5	Y5	Z5	X6	Y6	Z6	X7	Y7	Z7	X8	Y8	Z8	X9	Y9	Z9	X10	Y10	Z10	X11	Y11	Z11	X12	Y12	Z12	X13	Y13	Z13	X14	Y14	Z14	X15	Y15	Z15	X16	Y16	Z16	X17	Y17	Z17	X18	Y18	Z18	X19	Y19	Z19	X20	Y20	Z20	X21	Y21	Z21	X22	Y22	Z22	X23	Y23	Z23	X24	Y24	Z24	X25	Y25	Z25	X26	Y26	Z26	X27	Y27	Z27	X28	Y28	Z28	X29	Y29	Z29	X30	Y30	Z30	X31	Y31	Z31	X32	Y32	Z32	X33	Y33	Z33	X34	Y34	Z34	X35	Y35	Z35	X36	Y36	Z36	X37	Y37	Z37	X38	Y38	Z38	X39	Y39	Z39	X40	Y40	Z40	X41	Y41	Z41	X42	Y42	Z42	X43	Y43	Z43	X44	Y44	Z44	X45	Y45	Z45	X46	Y46	Z46	X47	Y47	Z47	X48	Y48	Z48	X49	Y49	Z49	X50	Y50	Z50	X51	Y51	Z51	X52	Y52	Z52	X53	Y53	Z53	X54	Y54	Z54	X55	Y55	Z55	X56	Y56	Z56	X57	Y57	Z57	X58	Y58	Z58	X59	Y59	Z59	X60	Y60	Z60	X61	Y61	Z61	X62	Y62	Z62	X63	Y63	Z63	X64	Y64	Z64	
88	1.45	271.25463	878.88727	284.61327000000006	344.63439	971.19177	403.63505000000004	322.74106	971.19177	154.64482000000007	301.58988	1033.62486	386.28737000000007	283.31451	1033.71763	179.22844000000006	223.94278	826.00931	340.92365000000007	214.85148	826.00931	237.39419000000007	209.19261	898.73969	290.08660000000003	240.91938	986.59131	287.48909000000003	250.28898	1100.78914	287.67463000000004	247.04209	1205.33906	289.4372200000001	397.97618	1426.49878	278.67610000000013	245.5578	1401.82241	293.1479600000001	241.66153	1309.79621	291.7564300000001	397.88342	1300.70491	276.1713500000001	250.01068	1458.87494	299.7345100000001	331.09021	1726.78991	282.9434400000001	365.32173	1616.02451	339.16106000000013	277.09904	1626.41456	222.8295600000001	275.61474	1624.8375	315.8762000000001	289.43722	1425.10726	490.18792000000013	235.72436	1432.99257	94.99478000000009	325.89518	1331.31847	718.7691100000001	380.81404	1322.04163	704.9466300000001	163.08674	1350.42874	-127.55646999999992	217.26346	1334.75089	-137.9465199999999	452.61674	1250.70278	917.6644300000002	439.2581	1294.86051	936.5891700000001	355.76659	1306.36378	697.2468500000001	209.84199	1276.1213	-363.18805999999995	188.87634	1320.00073	-374.32025999999996	198.80256	1322.41271	-120.78437999999991	489.0747	1230.94312	1096.52179	490.55899	1217.21341	1011.2676900000001	472.19086	1254.59905	951.8959500000001	194.44244	1283.07893	-547.7970599999999	218.37668	1256.73272	-469.12949999999995	217.54176	1284.28492	-402.05798999999996	275.33644	847.06772	433.50646000000006	255.20571	486.56995	409.10839000000004	258.82367	485.64227	338.69721000000004	296.58039	486.47718	373.57811000000004	255.39124	847.99541	135.62731000000005	230.15825	487.68317	157.05680000000004	238.97125	485.64227	226.91136000000003	273.94491	486.29165	189.34018000000003	307.89812	451.59629	375.0624	225.79814	85.25410999999997	407.53132	229.04503	84.04811999999998	347.97405	285.54095	452.52397	186.92821000000004	204.46142	85.81071999999999	155.38697	211.88289	83.95534999999998	214.66594	189.24742	-0.09277000000002288	373.48534	354.09676	2.4119799999999785	350.84987	346.67529	1.8553699999999738	428.96081	372.65043	2.319209999999976	390.92579	228.11735	3.1541199999999767	377.19608	452.98781	3.1541199999999754	398.62556	169.6733	0.1855399999999885	187.94866	333.96603	2.226439999999987	214.94425	328.58546	2.0408999999999917	136.64777	353.54015	2.2264399999999895	175.33217	208.636	3.3396599999999883	185.25838	434.06307	2.87581999999999	169.76606	
89	1.467	271.3474	878.7945	284.5205000000001	344.63439	971.099	403.54228000000006	322.83383	971.19177	154.64482000000007	301.58988	1033.62486	386.28737000000007	283.50005	1033.62486	179.13567000000006	223.94278	826.00931	340.92365000000007	214.85148	826.00931	237.30142000000006	209.28538	898.73969	289.99383000000006	241.01215	986.59131	287.39632000000006	250.38175	1100.78914	287.67463000000004	247.13486	1205.33906	289.3444600000001	397.97618	1426.59155	278.5833300000001	245.5578	1401.82241	293.0551900000001	241.7543	1309.79621	291.6636700000001	397.97618	1300.70491	276.1713500000001	250.10345	1458.87494	299.64174000000014	331.09021	1726.78991	282.7579000000001	365.32173	1616.02451	338.97552000000013	277.00627	1626.41456	222.73679000000013	275.61474	1624.8375	315.7834300000001	289.43722	1425.20003	490.0951500000001	235.81712	1432.8998	94.90201000000009	325.89518	1331.31847	718.6763400000001	380.72127	1322.04163	704.9466300000001	163.17951	1350.33598	-127.64923999999992	217.35622	1334.65813	-138.0392899999999	452.61674	1250.70278	917.5716600000001	439.2581	1294.86051	936.5891700000001	355.76659	1306.36378	697.2468500000001	209.74922	1276.02853	-363.28081999999995	188.87634	1319.90796	-374.32025999999996	198.89532	1322.31994	-120.87714999999992	488.98193	1230.94312	1096.42903	490.46622	1217.21341	1011.2676900000001	472.09809	1254.59905	951.8031800000001	194.44244	1282.98616	-547.7970599999999	218.28391	1256.54718	-469.2222699999999	217.54176	1284.19215	-402.15075999999993	275.42921	847.06772	433.50646000000006	255.20571	486.56995	409.01562000000007	258.91644	485.64227	338.69721000000004	296.58039	486.47718	373.57811000000004	255.48401	847.99541	135.62731000000005	230.15825	487.68317	157.05680000000004	238.97125	485.64227	226.91136000000003	274.03768	486.29165	189.34018000000003	307.89812	451.59629	374.96964	225.79814	85.25410999999997	407.53132	229.04503	84.04811999999998	347.97405	285.63372	452.52397	186.92821000000004	204.46142	85.81071999999999	155.47974	211.88289	83.95534999999998	214.66594	189.24742	-0.09277000000002288	373.48534	354.09676	2.4119799999999785	350.84987	346.67529	1.8553699999999738	428.96081	372.65043	2.319209999999976	390.92579	228.11735	3.1541199999999767	377.19608	452.98781	3.1541199999999754	398.62556	169.6733	0.1855399999999885	187.94866	333.96603	2.226439999999987	214.85148	328.58546	1.9481399999999915	136.64777	353.54015	2.2264399999999895	175.33217	208.636	3.3396599999999883	185.25838	434.06307	2.87581999999999	169.76606	
90	1.483	271.3474	878.7945	284.5205000000001	344.72716	971.099	403.54228000000006	322.9266	971.19177	154.55206000000007	301.68265	1033.62486	386.19460000000004	283.59282	1033.62486	179.13567000000006	223.94278	826.00931	340.83089000000007	214.94425	826.00931	237.30142000000006	209.28538	898.73969	289.90107000000006	241.10492	986.59131	287.39632000000006	250.47452	1100.78914	287.58186000000006	247.22763	1205.33906	289.3444600000001	397.97618	1426.59155	278.49056000000013	245.65057	1401.82241	292.9624200000001	241.84707	1309.79621	291.57090000000005	397.97618	1300.70491	276.07858000000004	250.10345	1458.87494	299.64174000000014	330.90467	1726.78991	282.5723700000001	365.32173	1616.11727	338.8827500000001	276.9135	1626.32179	222.64402000000013	275.61474	1624.8375	315.6906700000001	289.43722	1425.20003	490.0951500000001	235.81712	1432.8998	94.90201000000009	325.80241	1331.31847	718.6763400000001	380.72127	1322.1344	704.8538600000002	163.17951	1350.33598	-127.74200999999991	217.35622	1334.75089	-138.0392899999999	452.61674	1250.70278	917.5716600000001	439.16533	1294.86051	936.4964100000001	355.76659	1306.36378	697.1540800000001	209.74922	1276.02853	-363.28081999999995	188.87634	1319.90796	-374.41302999999994	198.89532	1322.31994	-120.87714999999992	488.88916	1230.85035	1096.42903	490.37345	1217.21341	1011.1749200000002	472.09809	1254.59905	951.8031800000001	194.44244	1282.89339	-547.8898199999999	218.28391	1256.54718	-469.31503999999995	217.54176	1284.19215	-402.24352999999996	275.42921	847.06772	433.50646000000006	255.20571	486.56995	409.01562000000007	258.91644	485.64227	338.69721000000004	296.58039	486.47718	373.57811000000004	255.48401	847.99541	135.62731000000005	230.25102	487.68317	156.96403000000004	239.06402	485.64227	226.91136000000003	274.13045	486.29165	189.34018000000003	307.99089	451.59629	374.96964	225.79814	85.25410999999997	407.53132	229.04503	84.04811999999998	347.97405	285.63372	452.52397	186.83544000000003	204.46142	85.81071999999999	155.47974	211.88289	83.95534999999998	214.66594	189.24742	-0.09277000000002288	373.48534	354.09676	2.4119799999999785	350.84987	346.67529	1.8553699999999738	428.96081	372.65043	2.319209999999976	390.92579	228.11735	3.1541199999999767	377.19608	452.98781	3.1541199999999754	398.62556	169.6733	0.1855399999999885	187.94866	333.96603	2.226439999999987	214.85148	328.58546	1.9481399999999915	136.64777	353.54015	2.2264399999999895	175.33217	208.636	3.3396599999999883	185.25838	434.06307	2.87581999999999	169.76606	
91	1.5	271.44017	878.7945	284.5205000000001	344.72716	971.099	403.54228000000006	323.01936	971.099	154.55206000000007	301.68265	1033.62486	386.19460000000004	283.68559	1033.62486	179.13567000000006	224.03554	826.00931	340.73812000000004	214.94425	826.00931	237.20865000000006	209.37815	898.73969	289.90107000000006	241.10492	986.59131	287.30355000000003	250.47452	1100.78914	287.58186000000006	247.22763	1205.33906	289.25169000000005	398.06895	1426.59155	278.49056000000013	245.65057	1401.82241	292.9624200000001	241.84707	1309.79621	291.57090000000005	398.06895	1300.70491	276.07858000000004	250.10345	1458.87494	299.5489700000001	330.81191	1726.78991	282.4796000000001	365.32173	1616.11727	338.6972100000001	276.82073	1626.32179	222.55125000000012	275.52197	1624.74473	315.5979000000001	289.43722	1425.20003	490.00238000000013	235.81712	1432.80703	94.80924000000009	325.80241	1331.31847	718.5835700000001	380.72127	1322.22717	704.8538600000002	163.27228	1350.42874	-127.74200999999991	217.44899	1334.75089	-138.1320599999999	452.52397	1250.79555	917.4789000000001	439.07256	1294.86051	936.4964100000001	355.76659	1306.45655	697.0613200000001	209.74922	1276.02853	-363.3735899999999	188.87634	1319.90796	-374.50578999999993	198.89532	1322.41271	-120.96991999999992	488.79639	1230.85035	1096.33626	490.37345	1217.21341	1011.1749200000002	472.00532	1254.59905	951.8031800000001	194.44244	1282.89339	-547.9825899999998	218.28391	1256.54718	-469.31503999999995	217.54176	1284.19215	-402.24352999999996	275.42921	847.06772	433.41369000000003	255.29848	486.56995	409.01562000000007	258.91644	485.64227	338.60445000000004	296.58039	486.47718	373.48534000000006	255.57678	847.99541	135.53455000000005	230.34379	487.5904	156.96403000000004	239.06402	485.64227	226.81859000000003	274.13045	486.29165	189.24742000000003	307.99089	451.59629	374.96964	225.79814	85.25410999999997	407.53132	229.04503	84.04811999999998	347.97405	285.72649	452.52397	186.83544000000003	204.46142	85.81071999999999	155.47974	211.88289	83.95534999999998	214.66594	189.24742	-0.09277000000002288	373.48534	354.09676	2.4119799999999785	350.84987	346.67529	1.8553699999999738	428.96081	372.65043	2.319209999999976	390.92579	228.11735	3.1541199999999767	377.19608	452.98781	3.1541199999999754	398.62556	169.6733	0.1855399999999885	187.94866	333.96603	2.226439999999987	214.85148	328.58546	1.9481399999999915	136.64777	353.54015	2.2264399999999895	175.33217	208.636	3.3396599999999883	185.25838	434.06307	2.87581999999999	169.76606	
